<?xml version="1.0" encoding="UTF-8"?>
<svg width="1200pt" height="1200pt" version="1.1" viewBox="0 0 1200 1200" xmlns="http://www.w3.org/2000/svg">
 <path d="m799.8 266.75c25.949 0 49.449 10.5 66.5 27.551l0.050781 0.050781c17.051 17.051 27.602 40.602 27.602 66.5 0 19.102-5.75 36.949-15.602 51.852-8.3516 12.547-19.602 23.047-32.852 30.445-0.14844 17.301-3.1992 34.051-8.75 49.898-4.5 12.75-10.602 24.949-18.148 36.199 11.75 12.949 23.801 27.602 35.602 43.75 13.949 18.949 27.852 40.102 41.051 62.852l0.19922 0.39844 0.10156 0.19922c31.75 54.648 53.648 108.4 63.398 151.05 10.852 47.648 6.25 83.801-16.398 96.898-9.1992 5.3516-19.898 6.3984-31.801 3.6484h-0.050781c-5.1992-1.1992-10.699-3.1484-16.352-5.8516-7.3008 23-20.898 43.301-38.699 58.75-22.551 19.398-51.898 31.148-83.898 31.148-23.602 0-45.75-6.3984-64.852-17.602-16.102-9.3984-30-22.301-40.602-37.5-4.8984 1.6992-9.8984 3.1484-15.051 4.3516h-0.050781c-9.1992 2-18.602 3.1484-28.102 3.1484-17.352 0-34-3.4492-49.199-9.8008-10.801-4.5-20.852-10.352-29.852-17.398-13.801 15.551-32 28.648-53.199 38.352-25.352 11.5-55.102 18.199-86.699 18.199-45.75 0-87.398-13.852-117.7-36.352-31.5-23.301-51-55.898-51-92.25 0-18.148 4.9492-35.5 13.898-51.199 6.25-11.102 14.5-21.301 24.352-30.398-3-3.1484-5.5-6.3516-7.6016-9.6992-12.25-19.949-8.3008-41.801 6.1016-63.898 12.398-18.949 33-38.398 57.199-56.75h0.050781c53.25-40.5 125.65-77.398 165-93.75-5.3008-9.25-9.6484-18.898-12.949-28.949-5.1484-15.543-7.8516-31.793-7.8516-48.492 0-7.75 0.60156-15.449 1.6992-22.949 0.65234-4.2031 1.4531-8.4531 2.5039-12.652-9.4023-7.6992-17.301-17.148-23.102-27.898-7.3008-13.402-11.449-28.703-11.449-44.902 0-25.949 10.551-49.449 27.551-66.5l0.050782-0.050781c17.051-17 40.602-27.551 66.5-27.551 10.352 0 20.449 1.75 29.898 4.8984 6.1016 2.0508 11.898 4.6484 17.398 7.8516 8.8984-6.6992 18.75-12.199 29.25-16.25 13.602-5.25 28.398-8.1484 43.699-8.1484 22.301 0 43.301 6.1016 61.398 16.699 14.352 8.4492 26.801 19.75 36.602 33.148 4.5-2.3984 9.25-4.4492 14.148-6.1016 9.4531-3.1953 19.602-4.9453 30.004-4.9453zm-186.3 182.9c-30.898 0-55.949 21.648-55.949 48.301 0 26.648 25.051 48.301 55.949 48.301s55.949-21.648 55.949-48.301c0-26.648-25.051-48.301-55.949-48.301zm-56.352-71.75c-13.148 0-23.852 10.648-23.852 23.852 0 13.148 10.699 23.852 23.852 23.852 13.148 0 23.852-10.699 23.852-23.852-0.050781-13.199-10.699-23.852-23.852-23.852zm116.35-3.0977c-13.199 0-23.852 10.648-23.852 23.801 0 13.148 10.648 23.852 23.852 23.852 13.148 0 23.852-10.648 23.852-23.852-0.050781-13.152-10.75-23.801-23.852-23.801zm103.7 343.6c-35.102 19.852-61.352 45.25-76.699 76.051-14.449 29-19.5 63.199-13.648 102.5 8.6016 13.602 20.398 25.102 34.301 33.199 14.801 8.6484 32.102 13.602 50.648 13.602 25.051 0 47.949-9.1484 65.5-24.199 17.398-14.949 29.551-35.898 33.449-59.5zm-119.65 171.8c-4.3008-40.801 2.0508-76.949 17.699-108.3 17.699-35.5 47.148-64.602 86.398-87.051l-40.602-61.5c-4.3008-6.5-2.5508-15.25 3.9492-19.551 6.5-4.25 15.25-2.5 19.551 4l154.2 233.65c0.35156 0.55078 0.69922 1.1016 1 1.6992 6.3984 3.75 12.25 6.25 17.398 7.4492 4.8008 1.1016 8.6992 1.0508 11.301-0.55078 10.75-6.1992 11.102-31.148 3.1016-66.352-9.1992-40.148-30.102-91.148-60.449-143.55l-0.25-0.39844-0.10156-0.14844c-12.551-21.602-25.852-41.75-39.148-59.949-13.801-18.801-27.852-35.5-41.25-49.449l-8.4492-8.8008 7.5-9.6484c9-11.5 16.102-24.352 20.898-37.949 4.5508-13.051 7.0508-27.051 7.0508-41.648h0.050782l-0.050782-3.3008-0.24609-3.8477-0.44922-9.6484 9-3.8516c11.949-5.1016 22.102-13.648 29.199-24.398 6.8516-10.352 10.852-22.852 10.852-36.25 0-18.199-7.3516-34.699-19.25-46.602l-0.050781-0.050781c-11.902-11.848-28.402-19.199-46.602-19.199-7.4492 0-14.602 1.1992-21.102 3.3984-6.8008 2.3008-13.199 5.6992-18.801 10l-12.949 9.8984-7.8984-14.25c-8.1016-14.551-20-26.699-34.301-35.148-13.75-8.1016-29.949-12.75-47.148-12.75-11.898 0-23.25 2.1992-33.5 6.1992-10.75 4.1484-20.602 10.301-29.051 17.898l-8.6484 7.8984-9.3516-7.0508c-5.6484-4.25-12-7.6484-18.75-9.8984-6.4492-2.1484-13.551-3.3516-20.949-3.3516-18.199 0-34.699 7.3516-46.551 19.25l-0.050781 0.054688c-11.852 11.852-19.199 28.352-19.199 46.551 0 11.449 2.8984 22.148 7.9492 31.449 5.25 9.6484 12.949 17.898 22.148 23.898l8.9492 5.8008-3.1484 10.152c-1.8008 5.8008-3.1992 12-4.1484 18.352-0.89844 6.1016-1.3984 12.398-1.3984 18.75 0 13.801 2.25 27.148 6.3516 39.551h0.050782c4.3008 13.102 10.75 25.398 18.801 36.449l11.352 15.551-18.301 6.1016c-29.75 9.8984-113.95 50.449-173.7 95.852-21.898 16.648-40.25 33.75-50.699 49.75-8.3594 12.844-11.258 24.645-5.6094 33.895 1.6992 2.6992 4.1484 5.3984 7.3516 8.1016l263.75-120.45c7.1016-3.1992 15.449-0.10156 18.648 6.9492 3.1992 7.0508 0.10156 15.449-6.9492 18.648l-101.05 46.148c30.449 20.699 53.75 46.102 68.699 76.051 16.699 33.551 22.801 72.551 16.648 116.85 8.1484 7.1484 17.398 12.949 27.398 17.102h0.050781c11.75 4.8984 24.75 7.5508 38.398 7.5508 7.6992 0 15.051-0.85156 21.898-2.3516 4.3086-1 8.457-2.2031 12.559-3.6523zm-354.25-134.55c-12.5 9.25-22.602 20.199-29.449 32.25-6.5 11.449-10.148 24.102-10.148 37.352 0 26.898 15.148 51.551 39.551 69.648 25.602 18.949 61.301 30.699 100.95 30.699 27.648 0 53.398-5.75 75-15.602 20.898-9.5 38.102-22.898 49.648-38.648 6.1992-39.949 1.1484-74.699-13.5-104.05-15-30.102-40.25-55-74.102-74.602z" fill="#0e1521" fill-rule="evenodd"/>
</svg>
